<svg class="h-6 h-6" xmlns="http://www.w3.org/2000/svg" viewBox="38.123 176.034 435.028 112.704">
  <path d="M -135.607 276.338 L -145.911 308.17 L -155.111 308.17 L -169.923 261.526 L -159.895 261.526 L -150.235 294.002 L -140.299 261.526 L -130.731 261.526 L -120.887 292.806 L -111.687 261.526 L -101.567 261.526 L -116.103 307.894 L -116.011 308.17 L -125.395 308.17 Z M -101.417 284.802 Q -101.417 279.742 -99.899 275.326 Q -98.381 270.91 -95.575 267.598 Q -92.769 264.286 -88.767 262.354 Q -84.765 260.422 -79.705 260.422 Q -75.289 260.422 -71.931 261.94 Q -68.573 263.458 -66.181 266.126 L -66.181 261.618 L -56.705 261.618 L -56.705 308.17 L -66.181 308.17 L -66.181 303.57 Q -68.573 306.238 -71.885 307.71 Q -75.197 309.182 -79.705 309.182 Q -84.765 309.182 -88.767 307.25 Q -92.769 305.318 -95.575 302.006 Q -98.381 298.694 -99.899 294.278 Q -101.417 289.862 -101.417 284.802 Z M -92.217 284.802 Q -92.217 287.93 -91.297 290.736 Q -90.377 293.542 -88.629 295.658 Q -86.881 297.774 -84.397 299.016 Q -81.913 300.258 -78.785 300.258 Q -72.805 300.258 -69.171 296.026 Q -65.537 291.794 -65.537 284.802 Q -65.537 277.81 -69.079 273.67 Q -72.621 269.53 -78.785 269.53 Q -81.913 269.53 -84.397 270.726 Q -86.881 271.922 -88.629 273.992 Q -90.377 276.062 -91.297 278.868 Q -92.217 281.674 -92.217 284.802 Z M -48.178 308.17 L -48.178 261.618 L -38.702 261.618 L -38.702 308.17 Z M -49.926 245.518 Q -49.926 242.666 -48.086 240.734 Q -46.246 238.802 -43.486 238.802 Q -40.634 238.802 -38.794 240.734 Q -36.954 242.666 -36.954 245.518 Q -36.954 248.186 -38.794 250.072 Q -40.634 251.958 -43.486 251.958 Q -46.246 251.958 -48.086 250.072 Q -49.926 248.186 -49.926 245.518 Z M -20.401 308.17 L -29.601 308.17 L -29.601 261.71 L -21.689 261.71 L -21.321 266.862 Q -19.481 263.918 -16.399 262.216 Q -13.317 260.514 -8.349 260.514 Q 1.863 260.514 6.923 266.494 Q 11.983 272.474 11.983 283.974 L 11.983 308.17 L 2.783 308.17 L 2.783 284.894 Q 2.783 277.258 -0.069 273.302 Q -2.921 269.346 -9.177 269.346 Q -12.397 269.346 -14.559 270.68 Q -16.721 272.014 -17.963 274.222 Q -19.205 276.43 -19.757 279.328 Q -20.309 282.226 -20.401 285.354 Z" transform="matrix(1, 0, 0, 1, 208.567505, -46.636211)"  class="fill-current text-gray-600 dark:text-white"/>
  <path d="M 47.664 276.338 L 37.36 308.17 L 28.16 308.17 L 13.348 261.526 L 23.376 261.526 L 33.036 294.002 L 42.972 261.526 L 52.54 261.526 L 62.384 292.806 L 71.584 261.526 L 81.704 261.526 L 67.168 307.894 L 67.26 308.17 L 57.876 308.17 Z M 92.547 308.17 L 83.531 308.17 L 83.531 261.618 L 92.363 261.618 L 92.455 265.666 Q 93.835 263.458 95.859 262.078 Q 97.883 260.698 100.551 260.606 Q 102.943 260.514 104.277 260.836 Q 105.611 261.158 106.623 261.618 Q 107.543 262.078 108.693 262.952 Q 109.843 263.826 110.855 265.114 L 105.151 272.014 Q 104.415 271.186 103.035 270.634 Q 101.655 270.082 99.999 270.082 Q 96.503 270.082 94.525 272.658 Q 92.547 275.234 92.547 280.662 Z M 114.811 308.17 L 114.811 261.618 L 124.287 261.618 L 124.287 308.17 Z M 113.063 245.518 Q 113.063 242.666 114.903 240.734 Q 116.743 238.802 119.503 238.802 Q 122.355 238.802 124.195 240.734 Q 126.035 242.666 126.035 245.518 Q 126.035 248.186 124.195 250.072 Q 122.355 251.958 119.503 251.958 Q 116.743 251.958 114.903 250.072 Q 113.063 248.186 113.063 245.518 Z M 132.213 284.802 Q 132.213 279.742 133.731 275.326 Q 135.249 270.91 138.055 267.598 Q 140.861 264.286 144.863 262.354 Q 148.865 260.422 153.925 260.422 Q 158.433 260.422 161.791 261.986 Q 165.149 263.55 167.541 266.218 L 167.541 261.618 L 176.741 261.618 L 176.649 305.226 Q 176.741 317.002 171.497 323.304 Q 166.253 329.606 154.845 329.606 Q 150.981 329.606 147.577 328.686 Q 144.173 327.766 141.413 325.834 Q 135.801 321.786 133.685 315.346 L 142.057 311.482 Q 143.713 316.45 147.163 318.704 Q 150.613 320.958 155.121 320.958 Q 158.617 320.958 160.963 319.762 Q 163.309 318.566 164.781 316.45 Q 166.253 314.334 166.851 311.344 Q 167.449 308.354 167.541 304.766 L 167.541 303.478 Q 165.149 306.146 161.837 307.664 Q 158.525 309.182 153.925 309.182 Q 148.865 309.182 144.863 307.25 Q 140.861 305.318 138.055 302.006 Q 135.249 298.694 133.731 294.278 Q 132.213 289.862 132.213 284.802 Z M 141.413 284.802 Q 141.413 287.93 142.333 290.736 Q 143.253 293.542 145.001 295.658 Q 146.749 297.774 149.233 299.016 Q 151.717 300.258 154.845 300.258 Q 160.825 300.258 164.459 296.026 Q 168.093 291.794 168.093 284.802 Q 168.093 277.81 164.551 273.67 Q 161.009 269.53 154.845 269.53 Q 151.717 269.53 149.233 270.726 Q 146.749 271.922 145.001 273.992 Q 143.253 276.062 142.333 278.868 Q 141.413 281.674 141.413 284.802 Z M 193.572 308.17 L 184.096 308.17 L 184.096 242.482 L 193.572 242.482 L 193.572 265.666 Q 195.688 263.274 198.586 261.894 Q 201.484 260.514 205.532 260.514 Q 215.744 260.514 220.804 266.494 Q 225.864 272.474 225.864 283.974 L 225.864 308.17 L 216.664 308.17 L 216.664 284.894 Q 216.664 277.258 214.042 273.302 Q 211.42 269.346 205.348 269.346 Q 198.908 269.346 196.332 273.348 Q 193.756 277.35 193.572 284.986 Z M 241.142 269.806 L 231.482 269.806 L 231.482 261.618 L 241.142 261.618 L 241.142 251.314 L 250.434 247.266 L 250.434 261.618 L 263.222 261.618 L 263.222 269.806 L 250.434 269.806 L 250.434 295.382 Q 250.434 296.118 250.48 297.038 Q 250.526 297.958 251.262 298.694 Q 252.274 299.982 253.93 299.982 Q 255.126 299.982 256.046 299.43 Q 256.966 298.878 257.978 298.05 L 263.406 304.582 Q 262.118 306.146 259.634 307.48 Q 257.15 308.814 253.746 308.814 Q 251.998 308.814 249.652 308.308 Q 247.306 307.802 245.466 306.238 Q 243.534 304.674 242.338 301.96 Q 241.142 299.246 241.142 295.474 Z" transform="matrix(1, 0, 0, 1, 208.567505, -46.636211)" style="fill: rgb(84, 136, 250); text-transform: lowercase; white-space: pre;"/>
  <path transform="matrix(1, 0, 0, 1, 208.567505, -46.636211)" class="fill-current text-gray-600 dark:text-white">
</svg>
